<svg width="550" height="299" viewBox="0 0 550 299" fill="none" xmlns="http://www.w3.org/2000/svg">
<rect x="23" y="92" width="452" height="136" rx="28" fill="black"/>
<rect x="451" y="196" width="74" height="32" fill="black"/>
<rect x="509" y="124" width="16" height="72" fill="black"/>
<rect x="497" y="113" width="37" height="11" fill="black"/>
<rect x="517" y="207" width="24" height="9" fill="black"/>
<rect x="541" y="196" width="9" height="32" fill="black"/>
<rect x="33.0422" y="217.127" width="24" height="9" transform="rotate(-179.78 33.0422 217.127)" fill="black"/>
<rect x="9" y="228.034" width="9" height="32" transform="rotate(-179.78 9 228.034)" fill="black"/>
<rect x="61" width="51" height="92" fill="black"/>
<rect x="181" y="57" width="76" height="43" fill="black"/>
<rect x="345" y="57" width="53" height="43" fill="black"/>
<rect x="427" y="9" width="24" height="110" fill="black"/>
<rect x="427" y="9" width="94" height="19" fill="black"/>
<rect x="33.0833" y="232.341" width="440.936" height="64.8647" rx="32.4324" transform="rotate(0.154857 33.0833 232.341)" fill="black"/>
<ellipse cx="219" cy="65.5" rx="38" ry="26.5" fill="black"/>
</svg>
